<svg width="28" height="28" viewBox="0 0 28 28" fill="none" xmlns="http://www.w3.org/2000/svg">
<path d="M23.415 7.40834H17.5V9.05334H23.4384L23.415 7.40834ZM22.1667 18.725C21.718 19.0223 21.1881 19.1731 20.65 19.1567C20.2939 19.1938 19.9339 19.157 19.5926 19.0486C19.2514 18.9402 18.9361 18.7625 18.6667 18.5267C18.1686 17.9619 17.9092 17.2257 17.9434 16.4733H25.6667C25.7224 15.69 25.6555 14.9027 25.4684 14.14C25.2874 13.4144 24.9707 12.7295 24.535 12.1217C24.0965 11.532 23.5301 11.0494 22.8784 10.71C22.1532 10.3525 21.3534 10.1725 20.545 10.185C19.7847 10.1794 19.031 10.3262 18.3284 10.6167C17.685 10.8879 17.102 11.2845 16.6134 11.7833C16.1262 12.2921 15.7489 12.8958 15.505 13.5567C15.2434 14.2701 15.1129 15.0251 15.12 15.785C15.108 16.5557 15.2345 17.3223 15.4934 18.0483C15.7133 18.7058 16.0623 19.3127 16.52 19.8333C16.9936 20.3445 17.5756 20.7432 18.2234 21C18.9457 21.2752 19.7139 21.4098 20.4867 21.3967C21.571 21.4305 22.6416 21.1466 23.5667 20.58C24.5011 19.916 25.1738 18.9461 25.4684 17.8383H22.89C22.752 18.2048 22.498 18.5162 22.1667 18.725ZM18.165 13.9183C18.2558 13.6275 18.4066 13.3588 18.6075 13.1298C18.8084 12.9007 19.0551 12.7163 19.3317 12.5883C19.698 12.4235 20.0969 12.3437 20.4984 12.355C20.7884 12.3302 21.0804 12.3685 21.3543 12.4672C21.6282 12.5658 21.8774 12.7226 22.085 12.9267C22.4815 13.4119 22.7358 13.9974 22.82 14.6183H17.9784C17.9973 14.3812 18.0403 14.1467 18.1067 13.9183H18.165ZM11.9934 13.3583C12.5872 13.1111 13.1031 12.708 13.4867 12.1917C13.8393 11.6433 14.0145 10.9997 13.9884 10.3483C14.0112 9.75431 13.8954 9.16313 13.65 8.62167C13.4439 8.15257 13.113 7.74903 12.6934 7.455C12.2485 7.1493 11.7432 6.94244 11.2117 6.84834C10.5827 6.7164 9.94106 6.65381 9.29837 6.66167H2.33337V21.3383H9.45004C10.0995 21.3388 10.7464 21.2565 11.375 21.0933C11.9709 20.9392 12.5354 20.6826 13.0434 20.335C13.5354 19.994 13.936 19.5373 14.21 19.005C14.5133 18.4098 14.6617 17.7477 14.6417 17.08C14.6638 16.2525 14.4317 15.4382 13.9767 14.7467C13.4874 14.0512 12.7616 13.5577 11.935 13.3583H11.9934ZM5.56504 9.17H8.58671C8.86431 9.16966 9.14143 9.19308 9.41504 9.24C9.66698 9.27734 9.90893 9.3646 10.1267 9.49667C10.3371 9.61569 10.5076 9.79429 10.6167 10.01C10.7518 10.2687 10.8162 10.5584 10.8034 10.85C10.8251 11.1011 10.7867 11.3538 10.6914 11.5871C10.596 11.8204 10.4464 12.0277 10.255 12.1917C9.83751 12.4787 9.3379 12.622 8.83171 12.6H5.56504V9.17ZM11.2117 17.85C11.0918 18.0878 10.9106 18.2892 10.6867 18.4333C10.4537 18.5782 10.197 18.6809 9.92837 18.7367C9.62977 18.8035 9.32432 18.8348 9.01837 18.83H5.51837V14.805H9.01837C9.61899 14.7787 10.2121 14.9464 10.71 15.2833C10.935 15.4852 11.1092 15.7372 11.2187 16.0189C11.3281 16.3007 11.3697 16.6042 11.34 16.905C11.3716 17.2257 11.3276 17.5493 11.2117 17.85Z" fill="#020E2C"/>
</svg>
