<svg width="28" height="28" viewBox="0 0 28 28" fill="none" xmlns="http://www.w3.org/2000/svg">
<path d="M25.6667 6.76667C24.7898 7.14711 23.8624 7.39861 22.9134 7.51333C23.9146 6.91521 24.6649 5.97425 25.025 4.865C24.0842 5.42507 23.0543 5.81968 21.98 6.03167C21.262 5.253 20.3058 4.73468 19.2615 4.55799C18.2171 4.38131 17.1437 4.55625 16.2095 5.05539C15.2753 5.55452 14.5331 6.34962 14.0995 7.31598C13.6658 8.28233 13.5652 9.36529 13.8134 10.395C11.911 10.2988 10.0502 9.80345 8.3518 8.94117C6.65339 8.0789 5.15536 6.86898 3.95504 5.39C3.53403 6.1252 3.31281 6.95779 3.31337 7.805C3.31188 8.59178 3.50496 9.36672 3.87542 10.0608C4.24588 10.7549 4.78223 11.3467 5.43671 11.7833C4.67601 11.7626 3.93157 11.5585 3.26671 11.1883V11.2467C3.27241 12.349 3.6587 13.4156 4.36024 14.266C5.06178 15.1163 6.03551 15.6982 7.11671 15.9133C6.70051 16.04 6.2684 16.1068 5.83337 16.1117C5.53225 16.1082 5.23187 16.0808 4.93504 16.03C5.24294 16.9783 5.83877 17.807 6.63963 18.4009C7.44049 18.9947 8.40655 19.3241 9.40338 19.3433C7.72011 20.6678 5.64191 21.3907 3.50004 21.3967C3.11007 21.3979 2.7204 21.3746 2.33337 21.3267C4.52021 22.7386 7.06866 23.4882 9.67171 23.485C11.468 23.5037 13.25 23.1642 14.9137 22.4864C16.5773 21.8087 18.0892 20.8062 19.3611 19.5376C20.633 18.269 21.6393 16.7596 22.3214 15.0977C23.0034 13.4358 23.3474 11.6547 23.3334 9.85833V9.24C24.2489 8.55728 25.0384 7.72033 25.6667 6.76667Z" fill="#020E2C"/>
</svg>
